# xmcd CD database file
# Copyright (C) 1993-1998 Ti Kan
# 
# Track frame offsets:
#     187
#     15600
#     31580
#     44800
#     61120
#     76935
#     91775
#     106872
#     121447
#     137300
#     152025
# 
# Disc length: 2229 seconds
# 
# Revision: 1
# Processed by: cddbd v1.4b41PL1 Copyright (c) Steve Scherf et al.
# Submitted via: DiscPlay 4.0.4
# 
DISCID=7808b30b
DTITLE=Glenn Miller - Moonlight Serenade
DYEAR=1900
DGENRE=
TTITLE0=Moonlight Serenade
TTITLE1=King Porter Stomp
TTITLE2=Little Brown Jug
TTITLE3=In The Mood
TTITLE4=Tuxedo Junction
TTITLE5=Pennsylvania 6-5000
TTITLE6=A String Of Pearls
TTITLE7=Elmer's Tune
TTITLE8=Chattanooga Choo-choo
TTITLE9=Don't Sit Under The Apple Tree (With Anyone Else But Me)
TTITLE10=American Patrol
EXTD=
EXTT0=
EXTT1=
EXTT2=
EXTT3=
EXTT4=
EXTT5=
EXTT6=
EXTT7=
EXTT8=
EXTT9=
EXTT10=
PLAYORDER=
